# xmcd
#
# Track frame offsets:
#	150
#	7728
#	25146
#	41859
#	53736
#	66492
#	86870
#	101572
#	110488
#	134031
#	143511
#	160102
#	180663
#	197168
#	215025
#	239897
#	252065
#	260826
#
# Disc length: 3603 seconds
# Revision: 0
# Processed by: cddbd v1.5.2PL0 Copyright (c) Steve Scherf et al.
# Submitted via: dBpowerAMP V12.0
#
DISCID=0f0e1112
DTITLE=Dom Flemons - Black Cowboys
DYEAR=2018
DGENRE=Western
TTITLE0=Black Woman
TTITLE1=Texas Easy Street
TTITLE2=One Dollar Bill
TTITLE3=Going Down the Road Feelin' Bad
TTITLE4=Tyin' Knots in the Devil's Tail
TTITLE5=Home on the Range
TTITLE6=Ol' Proc
TTITLE7=John Henry y los Vaqueros
TTITLE8=Po' Howard/Gwine Dig a Hole to Put the Devil In
TTITLE9=Knox County Stomp
TTITLE10=He's a Lone Ranger
TTITLE11=Steel Pony Blues
TTITLE12=Little Joe the Wrangler
TTITLE13=Charmin' Betsy
TTITLE14=Goodbye Old Paint
TTITLE15=Lonesome Old River Blues
TTITLE16=The March of Red River Valley
TTITLE17=Old Chisholm Trail
EXTD=
EXTT0=
EXTT1=
EXTT2=
EXTT3=
EXTT4=
EXTT5=
EXTT6=
EXTT7=
EXTT8=
EXTT9=
EXTT10=
EXTT11=
EXTT12=
EXTT13=
EXTT14=
EXTT15=
EXTT16=
EXTT17=
PLAYORDER=
